<?xml version="1.0" encoding="UTF-8"?>
<svg id="uuid-fd392e1d-c9b2-4b22-9ba3-02a55b79fda9" data-name="Layer 2" xmlns="http://www.w3.org/2000/svg" viewBox="0 0 182.65 162.74">
  <defs>
    <style>
      .uuid-e4404dbe-ff87-40c7-abe9-f0877737cf52 {
        fill: #fff;
      }
    </style>
  </defs>
  <g id="uuid-224105bd-b1f2-44c9-a73a-5317fac1227c" data-name="main">
    <g id="uuid-2c36539a-3f84-4b52-aec4-e6ccb73b3217" data-name="black">
      <path d="M91.52,162.74c-1.89,0-3.76-.09-5.58-.29-12.81-1.37-22.06-7.55-26.74-17.9-.53-1.53-.86-3.05-1-4.55-7.08,2.43-14.33,3.2-21.57,2.29-7.45-.89-17.83-3.44-24.98-10.46-5.51-5.22-7.44-14.63-4.29-20.97,1.79-3.9,4.92-7.43,9.85-11.11C5.26,94.28-1.1,84.54.16,73.55l.03-.21c2.85-17.28,20.47-26.98,35.89-28.82-.75-1.95-1.13-3.85-1.13-5.67-.36-12.32,5.14-22.47,15.89-29.35,20.02-12.79,52.92-11.67,71.08-2.6,5.64,2.68,19.01,10.47,21.19,24.72.93,5.63-.29,11.79-3.37,17.03,13.7.93,31.26,8.02,39.01,20.05,4.4,6.82,5.07,14.22,2.01,21.98-4.26,9.07-14.34,15.35-25.88,16.19,5.97,8.22,3.01,20.2-3.19,28.04-10.33,13.96-37.16,27.82-60.18,27.82Z"/>
    </g>
    <g id="uuid-92f985ce-79a6-4ada-9ce2-350960da1720" data-name="white">
      <path class="uuid-e4404dbe-ff87-40c7-abe9-f0877737cf52" d="M110.95,92.73c-5.37,0-9.74-6.18-9.74-13.77s4.37-13.77,9.74-13.77,9.74,6.18,9.74,13.77-4.37,13.77-9.74,13.77Z"/>
      <path class="uuid-e4404dbe-ff87-40c7-abe9-f0877737cf52" d="M137.95,92.73c-5.37,0-9.74-6.18-9.74-13.77s4.37-13.77,9.74-13.77,9.74,6.18,9.74,13.77-4.37,13.77-9.74,13.77Z"/>
      <path class="uuid-e4404dbe-ff87-40c7-abe9-f0877737cf52" d="M125.95,102.2c-5.2,0-6.24-.84-6.24-2.18s1.04-2.18,6.24-2.18,6.24.84,6.24,2.18-1.04,2.18-6.24,2.18Z"/>
      <path class="uuid-e4404dbe-ff87-40c7-abe9-f0877737cf52" d="M53.62,58.22c-7.4,0-14.47-6.39-17.29-13.09l-.26-.62.67-.07c1.27-.14,2.59-.22,3.92-.25h.98c5.78.03,11.76.05,16.92,2.63,2.59,1.45,3.8,3.61,3.32,5.95-.56,2.78-3.33,4.99-6.71,5.36-.52.06-1.03.09-1.54.09Z"/>
      <path class="uuid-e4404dbe-ff87-40c7-abe9-f0877737cf52" d="M58.19,140.01l-.04-.66c-.68-10.14,6.82-21.11,17.45-25.51,5.4-2.14,9.27-2.02,11.49.34,2.28,2.79.17,6.85-2.32,9.5-5.42,5.43-12.38,10.08-21.31,14.23-1.49.69-3.05,1.33-4.63,1.89l-.62.22Z"/>
      <path class="uuid-e4404dbe-ff87-40c7-abe9-f0877737cf52" d="M34.48,103.59c-5.46,0-11.21-1.18-16.49-3.48l-.8-.35.71-.51c5.99-4.32,13.33-7.21,20.67-8.14,5.65-.77,9.38-.44,11.39.99,1.77,1.38,1.86,2.88,1.64,3.89-.66,2.95-4.8,5.62-7.48,6.23-2.98.92-6.26,1.37-9.64,1.37Z"/>
    </g>
  </g>
</svg>